# AST/ASF file generated using VICON BodyLanguage
# -----------------------------------------------
:version 1.10
:name VICON
:units
  mass 1.0
  length 0.45
  angle deg
:documentation
   .ast/.asf automatically generated from VICON data using
   VICON BodyBuilder and BodyLanguage model FoxedUp or BRILLIANT.MOD
:root
   order TX TY TZ RX RY RZ
   axis XYZ
   position 0 0 0  
   orientation 0 0 0 
:bonedata
  begin
     id 1 
     name lhipjoint
     direction 0.635376 -0.686425 0.353719 
     length 2.47244 
     axis 0 0 0  XYZ
  end
  begin
     id 2 
     name lfemur
     direction 0.34202 -0.939693 0  
     length 7.25268  
     axis 0 0 20  XYZ
    dof rx ry rz
    limits (-160.0 20.0)
           (-70.0 70.0)
           (-60.0 70.0)
  end
  begin
     id 3 
     name ltibia
     direction 0.34202 -0.939693 0   
     length 7.6767   
     axis 0 0 20   XYZ
    dof rx
    limits (-10.0 170.0)
  end
  begin
     id 4 
     name lfoot
     direction 0.0803374 -0.220725 0.972022   
     length 2.22945   
     axis -90 7.62852e-016 20   XYZ
    dof rx rz
    limits (-45.0 90.0)
           (-70.0 20.0)
  end
  begin
     id 5 
     name ltoes
     direction 1.53579e-011 -4.21994e-011 1   
     length 1.11848   
     axis -90 7.62852e-016 20   XYZ
    dof rx
    limits (-90.0 20.0)
  end
  begin
     id 6 
     name rhipjoint
     direction -0.664428 -0.664335 0.342336   
     length 2.55466  
     axis 0 0 0  XYZ 
  end
  begin
     id 7 
     name rfemur
     direction -0.34202 -0.939693 0   
     length 6.83172   
     axis 0 0 -20   XYZ
    dof rx ry rz
    limits (-160.0 20.0)
           (-70.0 70.0)
           (-70.0 60.0)
  end
  begin
     id 8 
     name rtibia
     direction -0.34202 -0.939693 0   
     length 7.62692   
     axis 0 0 -20   XYZ
    dof rx
    limits (-10.0 170.0)
 end
 begin
     id 9 
     name rfoot
     direction -0.0949276 -0.260811 0.960711   
     length 2.19684  
     axis -90 -7.62852e-016 -20   XYZ
    dof rx rz
    limits (-45.0 90.0)
           (-20.0 70.0)
  end
  begin
     id 10 
     name rtoes
     direction -1.53543e-011 -4.2183e-011 1   
     length 1.09848   
     axis -90 -7.62852e-016 -20   XYZ
    dof rx
    limits (-90.0 20.0)
  end
  begin
     id 11 
     name lowerback
     direction 0.0118782 0.999815 -0.0151555   
     length 2.15772   
     axis 0 0 0   XYZ
    dof rx ry rz
    limits (-20.0 45.0)
           (-30.0 30.0)
           (-30.0 30.0)
  end
  begin
     id 12 
     name upperback
     direction 0.00130825 0.999065 0.0432113   
     length 2.14863   
     axis 0 0 0   XYZ
    dof rx ry rz
    limits (-20.0 45.0)
           (-30.0 30.0)
           (-30.0 30.0)
  end
  begin
     id 13 
     name thorax
     direction -0.00347005 0.998773 0.0494011   
     length 2.14936   
     axis 0 0 0   XYZ
    dof rx ry rz
    limits (-20.0 45.0)
           (-30.0 30.0)
           (-30.0 30.0)
  end
  begin
     id 14 
     name lowerneck
     direction -0.0262159 0.99424 0.103921   
     length 1.69373   
     axis 0 0 0   XYZ
    dof rx ry rz
    limits (-20.0 45.0)
           (-30.0 30.0)
           (-30.0 30.0)
  end
  begin
     id 15 
     name upperneck
     direction 0.0353511 0.977394 -0.20845   
     length 1.70857   
     axis 0 0 0   XYZ
    dof rx ry rz
    limits (-20.0 45.0)
           (-30.0 30.0)
           (-30.0 30.0)
  end
  begin
     id 16
     name head
     direction 0.0139214 0.996594 -0.0812836  
     length 1.72777  
     axis 0 0 0   XYZ
    dof rx ry rz
    limits (-20.0 45.0)
           (-30.0 30.0)
           (-30.0 30.0)
  end
  begin
     id 17 
     name lclavicle
     direction 0.841247 0.537205 -0.0609508  
     length 3.55371  
     axis 0 0 0   XYZ
    dof ry rz
    limits (-20.0 10.0)
           (0.0 20.0)
  end
  begin
     id 18 
     name lhumerus
     direction 1 -4.48964e-011 1.60116e-018   
     length 4.91377   
     axis -180 -30 -90   XYZ
    dof rx ry rz
    limits (-60.0 90.0)
           (-90.0 90.0)
           (-90.0 90.0)
  end
  begin
     id 19
     name lradius
     direction 1 -4.48989e-011 -8.93847e-027   
     length 3.00291   
     axis -180 -30 -90   XYZ
    dof rx
    limits (-10.0 170.0)
  end
  begin
     id 20
     name lwrist
     direction 1 -4.48932e-011 -7.31504e-027   
     length 1.50145   
     axis 5.74121e-015 90 90   XYZ
    dof ry
    limits (-180.0 0.0)
 end
  begin
     id 21 
     name lhand
     direction 1 -4.48971e-011 -1.46301e-026   
     length 0.450922   
     axis 9.33524e-015 90 90   XYZ
    dof rx rz
    limits (-90.0 90.0)
           (-45.0 45.0)
  end
  begin
     id 22 
     name lfingers
     direction 1 -4.49039e-011 -2.92602e-026   
     length 0.363545   
     axis 1.86705e-014 90 90   XYZ
    dof rx
    limits (0.0 90.0)
  end
  begin
     id 23
     name lthumb
     direction 0.707107 -6.34941e-011 0.707107   
     length 0.52198   
     axis -90 45 2.85299e-015   XYZ
    dof rx rz
    limits (-45.0 45.0)
           (-45.0 45.0)
  end
  begin
     id 24 
     name rclavicle
     direction -0.825079 0.56158 -0.0622297   
     length 3.39909  
     axis 0 0 0   XYZ 
    dof ry rz
    limits (-10.0 20.0)
           (-20.0 0.0)
  end
  begin
     id 25 
     name rhumerus
     direction -1 -4.48965e-011 1.61691e-027  
     length 4.86725   
     axis -180 30 90   XYZ
    dof rx ry rz
    limits (-90.0 60.0)
           (-90.0 90.0)
           (-90.0 90.0)
  end
  begin
     id 26 
     name rradius
     direction -1 -4.48964e-011 -2.25776e-027   
     length 3.17144   
     axis -180 30 90   XYZ
    dof rx
    limits (-10.0 170.0)
  end
  begin
     id 27 
     name rwrist
     direction -1 -4.48961e-011 -7.31504e-027   
     length 1.58572   
     axis 5.74121e-015 -90 -90   XYZ
    dof ry
    limits (-180.0 0.0)
  end
  begin
     id 28
     name rhand
     direction -1 -4.49013e-011 -1.46301e-026   
     length 0.419368   
     axis 9.33524e-015 -90 -90   XYZ
    dof rx rz
    limits (-90.0 90.0)
           (-45.0 45.0)
  end
  begin
     id 29
     name rfingers
     direction -1 -4.489e-011 -2.92602e-026   
     length 0.338105   
     axis 1.86705e-014 -90 -90   XYZ
    dof rx
    limits (0.0 90.0)
  end
  begin
     id 30
     name rthumb
     direction -0.707107 -6.35022e-011 0.707107   
     length 0.485453   
     axis -90 -45 -2.85299e-015   XYZ
    dof rx rz
    limits (-45.0 45.0)
           (-45.0 45.0)
  end
:hierarchy
  begin
    root lhipjoint rhipjoint lowerback
    lhipjoint lfemur
    lfemur ltibia
    ltibia lfoot
    lfoot ltoes
    rhipjoint rfemur
    rfemur rtibia
    rtibia rfoot
    rfoot rtoes
    lowerback upperback
    upperback thorax
    thorax lowerneck lclavicle rclavicle
    lowerneck upperneck
    upperneck head
    lclavicle lhumerus
    lhumerus lradius
    lradius lwrist
    lwrist lhand lthumb
    lhand lfingers
    rclavicle rhumerus
    rhumerus rradius
    rradius rwrist
    rwrist rhand rthumb
    rhand rfingers
  end

#!OML:ASF H:\Swim 2\Project 1\Capture day 1\Session 1\male.ASF
:FULLY-SPECIFIED
:DEGREES
588
root 2.7863 15.0891 9.99847 105.362 21.9836 -6.80105
lowerback -15.4103 4.44001 11.8563
upperback -7.97655 4.55881 -4.69953
thorax 1.23305 2.02065 -11.0864
lowerneck -21.434 4.38771 4.22149
upperneck 28.0125 4.36635 1.12307
head 13.0365 2.48407 0.470914
rclavicle 4.54968e-014 1.84186e-014
rhumerus 84.0773 -25.613 -30.889
rradius 25.6159
rwrist 0.269274
rhand -14.0841 -6.63029
rfingers 7.12502
rthumb 12.048 -36.2635
lclavicle 4.54968e-014 1.84186e-014
lhumerus -452.868 -75.5694 489.119
lradius 44.6448
lwrist 55.5163
lhand -37.5931 -10.6659
lfingers 7.12502
lthumb -10.6468 19.0444
rfemur -56.4347 8.86144 19.189
rtibia 41.4742
rfoot 42.4334 6.67283
rtoes 28.8856
lfemur -37.5802 6.03798 -23.7645
ltibia 49.3098
lfoot -13.6025 4.34004
ltoes -23.07
589
root 2.78048 15.0807 9.99959 105.509 22.3223 -6.18599
lowerback -15.5282 4.47889 11.7935
upperback -7.98883 4.60486 -4.46338
thorax 1.2743 2.05225 -10.7657
lowerneck -21.4055 4.30242 4.19966
upperneck 28.4101 4.35583 0.819393
head 13.2013 2.43823 0.361392
rclavicle 1.26228e-014 4.36891e-014
rhumerus 84.2439 -25.2985 -31.2799
rradius 25.4217
rwrist 0.924082
rhand -14.5191 -6.81205
rfingers 7.12502
rthumb 11.6286 -36.4694
lclavicle 1.26228e-014 4.36891e-014
lhumerus -455.768 -73.5834 491.951
lradius 44.8087
lwrist 55.0488
lhand -37.3609 -10.6699
lfingers 7.12502
lthumb -10.4228 19.0518
rfemur -56.2168 9.28957 19.1648
rtibia 38.1787
rfoot 42.2775 6.42472
rtoes 28.6637
lfemur -36.2537 6.37453 -23.5224
ltibia 50.3722
lfoot -13.3052 3.88973
ltoes -23.1732
590
root 2.77349 15.072 10.001 105.654 22.6618 -5.4084
lowerback -15.5934 4.46776 11.7594
upperback -7.98426 4.58389 -4.21803
thorax 1.28846 2.04733 -10.4691
lowerneck -21.3491 4.24145 4.23506
upperneck 28.7581 4.37534 0.475815
head 13.3445 2.40577 0.229502
rclavicle 8.74653e-015 -1.88845e-015
rhumerus 84.5926 -24.9658 -31.9305
rradius 25.1414
rwrist 1.51981
rhand -14.7675 -7.03963
rfingers 7.12502
rthumb 11.389 -36.7103
lclavicle 8.74653e-015 -1.88845e-015
lhumerus -458.069 -71.5887 494.121
lradius 44.9047
lwrist 54.4493
lhand -37.105 -10.4327
lfingers 7.12502
lthumb -10.1759 19.3012
rfemur -55.839 9.63394 19.1251
rtibia 34.8778
rfoot 42.2234 6.11159
rtoes 28.617
lfemur -34.9445 6.62738 -23.209
ltibia 51.5506
lfoot -13.052 3.31948
ltoes -23.3017
591
root 2.7653 15.063 10.0015 105.798 22.9803 -4.48802
lowerback -15.6156 4.41372 11.7292
upperback -7.9631 4.50799 -3.96614
thorax 1.28373 2.01339 -10.1818
lowerneck -21.2524 4.20795 4.2462
upperneck 29.0458 4.42579 0.194134
head 13.4536 2.39228 0.128555
rclavicle 2.94201e-014 -3.96824e-014
rhumerus 85.0571 -24.6178 -32.7349
rradius 24.8308
rwrist 1.98384
rhand -14.8885 -7.28988
rfingers 7.12502
rthumb 11.2722 -36.967
lclavicle 2.94201e-014 -3.96824e-014
lhumerus -459.976 -69.6106 495.823
lradius 44.9639
lwrist 53.8314
lhand -36.794 -10.0015
lfingers 7.12502
lthumb -9.87586 19.7469
rfemur -55.3103 9.85281 19.0872
rtibia 31.6237
rfoot 42.2909 5.77013
rtoes 28.7472
lfemur -33.6798 6.74401 -22.8452
ltibia 52.8678
lfoot -12.8526 2.63219
ltoes -23.3871
592
root 2.75684 15.0535 10.0008 105.928 23.2861 -3.47322
lowerback -15.611 4.34547 11.6917
upperback -7.92308 4.41585 -3.6999
thorax 1.28079 1.97242 -9.87914
lowerneck -21.1311 4.18557 4.1937
upperneck 29.3133 4.48433 0.0133361
head 13.5452 2.38908 0.077901
rclavicle -8.74653e-015 5.61567e-015
rhumerus 85.5444 -24.2714 -33.5485
rradius 24.5439
rwrist 2.26146
rhand -15.0136 -7.53175
rfingers 7.12502
rthumb 11.1516 -37.2154
lclavicle -8.74653e-015 5.61567e-015
lhumerus -461.574 -67.6726 497.222
lradius 44.9367
lwrist 53.2414
lhand -36.4661 -9.5743
lfingers 7.12502
lthumb -9.55956 20.1888
rfemur -54.6252 9.9357 19.0973
rtibia 28.4556
rfoot 42.5076 5.43605
rtoes 29.021
lfemur -32.4793 6.73389 -22.4408
ltibia 54.3415
lfoot -12.655 1.87504
ltoes -23.2885
593
root 2.74869 15.0435 9.99823 106.03 23.5983 -2.38997
lowerback -15.5686 4.27373 11.6726
upperback -7.8655 4.31965 -3.4152
thorax 1.27652 1.92987 -9.56972
lowerneck -20.9903 4.17335 4.05471
upperneck 29.5674 4.54539 -0.0324408
head 13.621 2.39579 0.0944984
rclavicle -3.18055e-015 -3.64273e-014
rhumerus 86.0063 -23.9272 -34.2854
rradius 24.3171
rwrist 2.30252
rhand -15.2375 -7.73247
rfingers 7.12502
rthumb 10.9357 -37.4277
lclavicle -3.18055e-015 -3.64273e-014
lhumerus -462.871 -65.787 498.303
lradius 44.8576
lwrist 52.7419
lhand -36.1206 -9.14284
lfingers 7.12502
lthumb -9.22613 20.6353
rfemur -53.7724 9.88225 19.1976
rtibia 25.4126
rfoot 42.8395 5.12409
rtoes 29.2701
lfemur -31.3535 6.59205 -21.9904
ltibia 55.9816
lfoot -12.4647 1.06942
ltoes -23.0597
594
root 2.74155 15.0336 9.99337 106.109 23.9201 -1.26574
lowerback -15.5013 4.21588 11.6742
upperback -7.79526 4.2415 -3.11067
thorax 1.27775 1.89738 -9.24836
lowerneck -20.8418 4.16295 3.84015
upperneck 29.8229 4.60238 0.0251945
head 13.6905 2.40637 0.163772
rclavicle -3.10104e-014 3.70733e-014
rhumerus 86.3855 -23.6001 -34.8493
rradius 24.1823
rwrist 2.08949
rhand -15.6337 -7.8639
rfingers 7.12502
rthumb 10.5535 -37.5789
lclavicle -3.10104e-014 3.70733e-014
lhumerus -463.926 -63.9849 499.139
lradius 44.735
lwrist 52.3781
lhand -35.7387 -8.83227
lfingers 7.12502
lthumb -8.85766 20.9618
rfemur -52.7775 9.70683 19.3866
rtibia 22.5373
rfoot 43.3003 4.83799
rtoes 29.5262
lfemur -30.3409 6.34599 -21.5187
ltibia 57.7955
lfoot -12.2793 0.238766
ltoes -22.8245
595
root 2.7357 15.0245 9.98456 106.179 24.2476 -0.0998967
lowerback -15.4171 4.17705 11.692
upperback -7.71891 4.18845 -2.78629
thorax 1.28267 1.87829 -8.91111
lowerneck -20.686 4.1551 3.58569
upperneck 30.0988 4.65747 0.143286
head 13.7641 2.41977 0.263726
rclavicle 3.26007e-014 1.05356e-013
rhumerus 86.6572 -23.2973 -35.1975
rradius 24.1482
rwrist 1.64181
rhand -16.2353 -7.9084
rfingers 7.12502
rthumb 9.97315 -37.6521
lclavicle 3.26007e-014 1.05356e-013
lhumerus -464.826 -62.3053 499.858
lradius 44.5654
lwrist 52.1801
lhand -35.2836 -8.62939
lfingers 7.12502
lthumb -8.41843 21.1828
rfemur -51.6777 9.43589 19.63
rtibia 19.9015
rfoot 43.7885 4.54764
rtoes 29.6688
lfemur -29.4696 5.99731 -21.0465
ltibia 59.7793
lfoot -12.1147 -0.619725
ltoes -22.6204
596
root 2.73153 15.0168 9.97074 106.253 24.5821 1.116
lowerback -15.3136 4.1558 11.7537
upperback -7.6423 4.15546 -2.44775
thorax 1.28341 1.8685 -8.58182
lowerneck -20.5184 4.15671 3.36362
upperneck 30.3837 4.72857 0.219307
head 13.8419 2.43773 0.34471
rclavicle -2.22639e-014 2.46493e-014
rhumerus 86.8603 -23.0086 -35.3995
rradius 24.1924
rwrist 1.07265
rhand -17.0178 -7.84759
rfingers 7.12502
rthumb 9.21814 -37.6261
lclavicle -2.22639e-014 2.46493e-014
lhumerus -465.645 -60.7663 500.515
lradius 44.3749
lwrist 52.1319
lhand -34.766 -8.5034
lfingers 7.12502
lthumb -7.91894 21.3283
rfemur -50.5334 9.08927 19.9016
rtibia 17.6133
rfoot 44.2323 4.21529
rtoes 29.747
lfemur -28.7675 5.55593 -20.588
ltibia 61.9211
lfoot -11.9804 -1.50656
ltoes -22.5036
597
root 2.72897 15.0112 9.95083 106.345 24.9134 2.38576
lowerback -15.1982 4.15139 11.8695
upperback -7.56868 4.13975 -2.10499
thorax 1.28047 1.8661 -8.27743
lowerneck -20.3294 4.17436 3.21077
upperneck 30.6542 4.82936 0.20203
head 13.9149 2.46343 0.381874
rclavicle 7.95139e-015 9.34288e-015
rhumerus 87.0158 -22.7373 -35.4943
rradius 24.289
rwrist 0.473761
rhand -17.9647 -7.68361
rfingers 7.12502
rthumb 8.30442 -37.5004
lclavicle 7.95139e-015 9.34288e-015
lhumerus -466.431 -59.3737 501.145
lradius 44.1761
lwrist 52.1639
lhand -34.2296 -8.50003
lfingers 7.12502
lthumb -7.40116 21.3505
rfemur -49.4389 8.68304 20.1699
rtibia 15.828
rfoot 44.5346 3.81503
rtoes 29.7769
lfemur -28.2557 5.03833 -20.1659
ltibia 64.1923
lfoot -11.8886 -2.42398
ltoes -22.4401
